<svg xmlns="http://www.w3.org/2000/svg" viewBox="0 0 216 313" preserveAspectRatio="xMidYMid meet" aria-hidden="true" focusable="false">
<defs><clipPath id="brc"><circle cx="1400" cy="492" r="112"/></clipPath></defs>
<g transform="translate(-1150 -380)">
<g clip-path="url(#brc)" stroke="#476bb5" stroke-width="19" fill="none"><path d="M770.7 340.0 L1074.7 644.0"/><path d="M823.7 340.0 L1127.7 644.0"/><path d="M876.8 340.0 L1180.8 644.0"/><path d="M929.8 340.0 L1233.8 644.0"/><path d="M982.8 340.0 L1286.8 644.0"/><path d="M1035.9 340.0 L1339.9 644.0"/><path d="M1088.9 340.0 L1392.9 644.0"/><path d="M1141.9 340.0 L1445.9 644.0"/><path d="M1195.0 340.0 L1499.0 644.0"/><path d="M1248.0 340.0 L1552.0 644.0"/><path d="M1301.0 340.0 L1605.0 644.0"/><path d="M1354.1 340.0 L1658.1 644.0"/><path d="M1407.1 340.0 L1711.1 644.0"/><path d="M1460.1 340.0 L1764.1 644.0"/><path d="M1513.2 340.0 L1817.2 644.0"/><path d="M1566.2 340.0 L1870.2 644.0"/><path d="M1619.2 340.0 L1923.2 644.0"/><path d="M1672.3 340.0 L1976.3 644.0"/><path d="M1725.3 340.0 L2029.3 644.0"/></g><circle cx="1420" cy="660" r="150" fill="#50689f"/>
</g>
</svg>
